<svg width="348" height="85" viewBox="0 0 348 85" fill="none" xmlns="http://www.w3.org/2000/svg">
<path d="M49.435 0.0140069C50.0653 -0.0172441 57.2752 0.0140153 57.9997 0.0140169C71.9413 0.0140219 80.764 8.37506 80.764 19.8097C80.764 26.6707 75.3247 34.3168 67.2407 37.1013C61.8515 38.9575 53.7174 38.6939 48.9842 37.1013C46.2796 36.6463 44.3389 35.59 42.8987 34.8261C39.0671 31.8683 37.3901 30.0588 37.0386 25.0427C36.5878 16.6245 39.6537 13.7711 42.6733 10.2539C42.4479 9.11631 41.0504 9.76092 40.6448 10.0401C32.17 15.8756 27.7977 19.5822 28.0231 29.3656C28.0232 37.694 40.5978 48.9156 47.6319 50.4761V44.1544H80.5386V62.356H80.4677C80.514 62.788 80.5386 63.2427 80.5386 63.7212V79.6476H75.8055C72.1993 79.6476 62.0773 76.9174 59.1267 74.8697C55.881 72.6171 49.1674 67.487 47.8573 63.5994V79.6476H39.7433C26.0541 79.6476 14.1709 72.7828 7.5127 62.356C-1.27747 51.2061 0.0748783 44.6307 0.0748637 34.8261C3.2303 11.8451 26.033 0.0140082 49.435 0.0140069Z" fill="black" style="fill:black;fill-opacity:1;"/>
<path d="M119.101 0.362604C119.101 0.362604 119.325 4.23097 117.072 6.7337C113.24 15.6065 110.31 16.9722 108.056 29.0306C106.944 34.9815 108.17 47.7224 109.088 50.9651C109.99 54.1503 111.82 56.5509 113.596 58.7005C115.321 60.7888 116.887 62.1054 118.576 63.4407C119.754 64.3718 121.076 65.1136 122.487 65.6282C125.516 66.7337 126.331 66.8909 130.275 66.8909C130.624 66.8909 130.938 66.9243 131.218 66.9856C133.361 66.6199 135.418 65.4426 137.036 62.7962C138.614 59.3835 138.839 55.9706 138.258 51.9173C135.476 42.4755 127.805 34.3849 128.567 28.2552C129.099 23.9716 141.203 24.8421 142.991 24.8421C150.88 24.8421 161.398 14.1702 161.398 14.1702C161.436 14.1266 166.787 8.11364 166.787 12.1937C166.787 16.2847 166.883 46.6218 166.883 46.6839C166.883 46.6839 167.334 76.026 166.883 77.3987C166.432 78.7639 165.756 79.6742 164.178 80.1292C162.608 80.5818 157.024 80.8095 156.966 80.8118C156.966 80.8118 131.516 80.8118 123.095 80.8118C122.744 80.8727 122.394 80.9046 122.046 80.9046H101.902C94.1696 80.9046 87.9016 74.6366 87.9016 66.9046V14.1136C87.9016 6.30176 94.2947 0.000669122 102.106 0.114557L119.101 0.362604Z" fill="black" style="fill:black;fill-opacity:1;"/>
<path d="M236.72 0.123751C242.241 -0.154685 251.667 0.123743 256.537 0.123751C259.728 0.123751 259.729 2.49966 259.729 3.51535V80.9978H247.929V80.9987H210.965V80.8708C209.331 80.9814 183.033 82.7046 181.068 79.1775C178.138 77.5843 179.115 63.3308 179.115 63.3308C179.221 63.2911 210.288 51.6556 210.595 56.2722C210.734 58.5302 210.83 61.75 210.897 65.1189C211.372 66.0242 212.011 66.6316 212.011 66.6316C212.013 66.6326 212.117 66.6936 212.314 66.8279C212.493 66.8923 212.783 67.0538 213.219 67.3474C214.571 68.0298 215.58 67.8016 216.373 67.8015C221.494 67.5742 226.654 65.4786 227.8 64.9753C230.128 63.9531 234.745 61.1806 235.249 60.8855C236.413 60.2038 246.656 52.2506 246.656 48.615C246.656 45.2448 246.656 65.3267 246.656 68.2575H246.657V44.7185C245.975 43.2685 245.471 42.3244 245.231 42.115C243.658 40.7417 242.168 38.6814 239.946 38.6814H235.722C235.7 38.6841 234.725 38.7987 233.483 38.7859L227.949 39.8161L220.059 42.2497C220.059 42.2956 220.06 42.3191 220.06 42.3191L199.325 48.9167C199.325 48.9167 194.366 50.7369 190.76 50.9646C187.154 51.1921 190.603 50.9646 186.027 50.9646C184.722 50.9646 179.955 47.4701 179.039 42.3191C179.039 31.7457 179.039 16.1543 179.039 7.73606C179.039 2.27556 180.36 2.1443 180.617 1.82004C181.519 0.682853 183.322 0.455792 188.731 0.455783C196.14 0.100836 208.791 0.455781 215.327 0.455783C219.609 0.456008 219.61 3.48321 219.61 4.77805C219.61 6.48448 219.722 15.8701 219.834 24.8288V21.8425C219.836 21.847 221.187 25.0284 221.638 25.4831C222.672 26.5269 223.891 26.6198 224.342 26.6198C224.793 26.6198 225.695 26.3929 227.047 25.2556C228.51 23.6449 229.188 21.1805 229.498 20.6814C229.498 15.0866 229.498 9.56425 229.498 5.83567C229.498 1.55263 230.482 1.44935 230.674 1.19504C231.346 0.302653 232.689 0.123756 236.72 0.123751Z" fill="black" style="fill:black;fill-opacity:1;"/>
<path d="M329 0.0618896C339.494 0.0620983 348 8.56863 348 19.0619V25.7719C348 25.8004 347.982 31.9099 340.562 29.64C330.016 25.3817 314.973 19.4759 303.579 17.808C299.937 17.2747 296.06 18.0136 293.096 20.1976C292.367 20.7347 291.711 21.3576 291.203 22.1312C290.997 22.4443 290.757 22.7332 290.493 23.0023C290.624 23.7267 290.683 24.466 290.664 25.2094C290.65 25.7894 290.635 26.4299 290.619 27.1176C291.72 29.8491 293.918 33.8104 298.639 33.4457C305.268 32.9335 315.315 32.5062 320.273 32.2269C322.483 32.3809 324.105 35.1517 324.105 35.1517V41.0023C324.106 41.044 324.182 44.8888 323.654 47.2582C320.913 59.5401 297.652 51.1883 290.279 48.2015C290.206 54.082 290.272 57.5296 297.062 67.4076C301.957 74.5293 301.794 77.6591 301.037 78.9906C300.568 79.8164 299.512 79.9325 298.562 79.9535L280.357 80.3558C274.188 80.492 269.114 75.5288 269.114 69.3588V24.9135C269.114 24.2644 269.166 23.6396 269.263 23.0404C269.195 22.7556 269.157 22.4591 269.157 22.1547V10.9105C269.157 10.2713 269.07 9.63479 268.899 9.01892C267.648 4.51696 271.033 0.0618896 275.705 0.0618896H329Z" fill="black" style="fill:black;fill-opacity:1;"/>
</svg>
