<svg width="32" height="31" viewBox="0 0 32 31" fill="none" xmlns="http://www.w3.org/2000/svg">
<path d="M19.5869 0.00540418C19.8367 -0.00675917 22.6933 0.00540744 22.9804 0.00540808C28.5043 0.00541003 32 3.25965 32 7.71021C32 10.3806 29.8449 13.3566 26.6418 14.4403C24.5066 15.1628 21.2837 15.0602 19.4083 14.4403C18.3367 14.2632 17.5678 13.8521 16.9972 13.5548C15.479 12.4036 14.8146 11.6993 14.6753 9.74696C14.4967 6.47046 15.7114 5.35985 16.9079 3.99092C16.8186 3.54816 16.2648 3.79905 16.1041 3.90773C12.7463 6.17897 11.0139 7.62165 11.1032 11.4295C11.1032 14.671 16.0855 19.0386 18.8725 19.646V17.1855H31.9107V24.2699H31.8826C31.901 24.438 31.9107 24.615 31.9107 24.8012V31H30.0353C28.6065 31 24.596 29.9373 23.427 29.1404C22.141 28.2636 19.4809 26.2669 18.9618 24.7538V31H15.7469C10.323 31 5.61475 28.3281 2.97665 24.2699C-0.506155 19.9301 0.029668 17.3709 0.0296622 13.5548C1.2799 4.61024 10.3147 0.00540469 19.5869 0.00540418Z" fill="white" style="fill:white;fill-opacity:1;"/>
</svg>
