<svg width="200" height="200" viewBox="0 0 200 200" fill="none" xmlns="http://www.w3.org/2000/svg">
<g clip-path="url(#clip0_97_80)">
<path d="M35.4167 1.61203e-05H164.583C169.236 -0.00448106 173.843 0.932018 178.142 2.75592C182.441 4.57981 186.347 7.25531 189.636 10.6293C192.926 14.0032 195.535 18.0094 197.313 22.4186C199.091 26.8277 200.004 31.5533 200 36.3248V163.675C200.004 168.447 199.091 173.172 197.313 177.581C195.535 181.991 192.926 185.997 189.636 189.371C186.347 192.745 182.441 195.42 178.142 197.244C173.843 199.068 169.236 200.004 164.583 200H35.4167C30.7645 200.004 26.1571 199.068 21.8581 197.244C17.5592 195.42 13.6532 192.745 10.3635 189.371C7.07392 185.997 4.46532 181.991 2.68702 177.581C0.908717 173.172 -0.00436903 168.447 1.57173e-05 163.675V36.3248C-0.00436903 31.5533 0.908717 26.8277 2.68702 22.4186C4.46532 18.0094 7.07392 14.0032 10.3635 10.6293C13.6532 7.25531 17.5592 4.57981 21.8581 2.75592C26.1571 0.932018 30.7645 -0.00448106 35.4167 1.61203e-05V1.61203e-05Z" fill="#000B1D" style="fill:#000B1D;fill:color(display-p3 0.0000 0.0431 0.1137);fill-opacity:1;"/>
<path d="M80.8337 161C92.3396 161 101.667 151.673 101.667 140.167V119.333H80.8337C69.3277 119.333 60.0003 128.661 60.0003 140.167C60.0003 151.673 69.3277 161 80.8337 161Z" fill="#0ACF83" style="fill:#0ACF83;fill:color(display-p3 0.0392 0.8118 0.5137);fill-opacity:1;"/>
<path d="M60.0003 98.5C60.0003 86.9941 69.3277 77.6667 80.8337 77.6667H101.667V119.333H80.8337C69.3277 119.333 60.0003 110.006 60.0003 98.5Z" fill="#A259FF" style="fill:#A259FF;fill:color(display-p3 0.6353 0.3490 1.0000);fill-opacity:1;"/>
<path d="M60.0003 56.8333C60.0003 45.3274 69.3277 36 80.8337 36H101.667V77.6667H80.8337C69.3277 77.6667 60.0003 68.3393 60.0003 56.8333Z" fill="#F24E1E" style="fill:#F24E1E;fill:color(display-p3 0.9490 0.3059 0.1176);fill-opacity:1;"/>
<path d="M101.667 36H122.5C134.006 36 143.334 45.3274 143.334 56.8333C143.334 68.3393 134.006 77.6667 122.5 77.6667H101.667V36Z" fill="#FF7262" style="fill:#FF7262;fill:color(display-p3 1.0000 0.4471 0.3843);fill-opacity:1;"/>
<path d="M143.334 98.5C143.334 110.006 134.006 119.333 122.5 119.333C110.994 119.333 101.667 110.006 101.667 98.5C101.667 86.9941 110.994 77.6667 122.5 77.6667C134.006 77.6667 143.334 86.9941 143.334 98.5Z" fill="#1ABCFE" style="fill:#1ABCFE;fill:color(display-p3 0.1020 0.7373 0.9961);fill-opacity:1;"/>
</g>
<defs>
<clipPath id="clip0_97_80">
<rect width="200" height="200" fill="white" style="fill:white;fill-opacity:1;"/>
</clipPath>
</defs>
</svg>
