<svg width="132" height="132" viewBox="0 0 132 132" fill="none" xmlns="http://www.w3.org/2000/svg">
<g clip-path="url(#clip0_95_70)">
<path d="M23.375 1.06394e-05H108.625C111.695 -0.0029575 114.736 0.615132 117.574 1.8189C120.411 3.02268 122.989 4.7885 125.16 7.01532C127.331 9.24213 129.053 11.8862 130.227 14.7963C131.4 17.7063 132.003 20.8252 132 23.9744V108.026C132.003 111.175 131.4 114.294 130.227 117.204C129.053 120.114 127.331 122.758 125.16 124.985C122.989 127.211 120.411 128.977 117.574 130.181C114.736 131.385 111.695 132.003 108.625 132H23.375C20.3045 132.003 17.2637 131.385 14.4264 130.181C11.5891 128.977 9.01108 127.211 6.83993 124.985C4.66879 122.758 2.94711 120.114 1.77343 117.204C0.599754 114.294 -0.00288356 111.175 1.03734e-05 108.026V23.9744C-0.00288356 20.8252 0.599754 17.7063 1.77343 14.7963C2.94711 11.8862 4.66879 9.24213 6.83993 7.01532C9.01108 4.7885 11.5891 3.02268 14.4264 1.8189C17.2637 0.615132 20.3045 -0.0029575 23.375 1.06394e-05V1.06394e-05Z" fill="#000B1D" style="fill:#000B1D;fill:color(display-p3 0.0000 0.0431 0.1137);fill-opacity:1;"/>
<g clip-path="url(#clip1_95_70)">
<path d="M66 74.7281C71.0682 74.7281 75.1769 70.6727 75.1769 65.67C75.1769 60.6673 71.0682 56.6118 66 56.6118C60.9317 56.6118 56.8231 60.6673 56.8231 65.67C56.8231 70.6727 60.9317 74.7281 66 74.7281Z" fill="#61DAFB" style="fill:#61DAFB;fill:color(display-p3 0.3804 0.8549 0.9843);fill-opacity:1;"/>
<path fill-rule="evenodd" clip-rule="evenodd" d="M22.0653 60.0179C19.8387 62.0019 18.9033 63.9154 18.9033 65.67C18.9033 67.4245 19.8387 69.3381 22.0653 71.322C24.2916 73.3058 27.6337 75.1894 31.946 76.8146C40.5559 80.0595 52.5952 82.1109 66 82.1109C79.4049 82.1109 91.4442 80.0595 100.054 76.8146C104.366 75.1894 107.708 73.3058 109.935 71.322C112.161 69.3381 113.097 67.4245 113.097 65.67C113.097 63.9154 112.161 62.0019 109.935 60.0179C107.708 58.0342 104.366 56.1506 100.054 54.5254C91.4442 51.2805 79.4049 49.2291 66 49.2291C52.5952 49.2291 40.5559 51.2805 31.946 54.5254C27.6337 56.1506 24.2916 58.0342 22.0653 60.0179ZM30.4157 50.5694C39.6278 47.0976 52.2094 44.9946 66 44.9946C79.7906 44.9946 92.3722 47.0976 101.584 50.5694C106.183 52.3026 110.052 54.418 112.809 56.8747C115.566 59.3313 117.387 62.2998 117.387 65.67C117.387 69.0401 115.566 72.0087 112.809 74.4653C110.052 76.922 106.183 79.0374 101.584 80.7705C92.3722 84.2424 79.7906 86.3454 66 86.3454C52.2094 86.3454 39.6278 84.2424 30.4157 80.7705C25.817 79.0374 21.9478 76.922 19.1906 74.4653C16.4337 72.0087 14.6133 69.0401 14.6133 65.67C14.6133 62.2998 16.4337 59.3313 19.1906 56.8747C21.9478 54.418 25.817 52.3026 30.4157 50.5694Z" fill="#61DAFB" style="fill:#61DAFB;fill:color(display-p3 0.3804 0.8549 0.9843);fill-opacity:1;"/>
<path fill-rule="evenodd" clip-rule="evenodd" d="M48.9916 25.2876C46.1376 24.3763 43.9911 24.5335 42.4517 25.4107C40.9123 26.288 39.7011 28.0443 39.0737 30.9397C38.4463 33.8347 38.4648 37.6333 39.195 42.1322C40.653 51.1145 44.8728 62.4317 51.5752 73.8904C58.2776 85.3492 66.0971 94.6149 73.249 100.352C76.8311 103.226 80.1547 105.141 83.0084 106.052C85.8624 106.964 88.009 106.807 89.5484 105.929C91.0878 105.052 92.299 103.296 92.9264 100.4C93.5537 97.5053 93.5353 93.7066 92.8051 89.2078C91.3471 80.2254 87.1273 68.9083 80.4249 57.4495C73.7225 45.9908 65.903 36.725 58.751 30.9876C55.169 28.1139 51.8453 26.1989 48.9916 25.2876ZM61.4568 27.7015C69.109 33.8403 77.2448 43.5438 84.1401 55.3323C91.0355 67.1208 95.4811 78.9272 97.0411 88.5379C97.8198 93.3355 97.8984 97.7007 97.1215 101.286C96.3447 104.871 94.6503 107.911 91.6934 109.596C88.7365 111.281 85.2218 111.21 81.688 110.081C78.1539 108.953 74.3633 106.703 70.5433 103.638C62.8911 97.4996 54.7552 87.7962 47.8599 76.0077C40.9646 64.2192 36.519 52.4127 34.959 42.8021C34.1803 38.0045 34.1017 33.6392 34.8786 30.054C35.6554 26.469 37.3498 23.4286 40.3067 21.7435C43.2636 20.0585 46.7783 20.1303 50.3121 21.2587C53.8462 22.3872 57.6368 24.637 61.4568 27.7015Z" fill="#61DAFB" style="fill:#61DAFB;fill:color(display-p3 0.3804 0.8549 0.9843);fill-opacity:1;"/>
<path fill-rule="evenodd" clip-rule="evenodd" d="M92.9264 30.9397C92.299 28.0444 91.0878 26.288 89.5484 25.4107C88.009 24.5335 85.8624 24.3763 83.0084 25.2876C80.1547 26.1989 76.8311 28.1139 73.249 30.9876C66.0971 36.7251 58.2776 45.9908 51.5752 57.4495C44.8728 68.9083 40.6529 80.2254 39.195 89.2078C38.4647 93.7066 38.4463 97.5053 39.0737 100.4C39.7011 103.296 40.9123 105.052 42.4517 105.929C43.991 106.807 46.1376 106.964 48.9916 106.052C51.8453 105.141 55.1689 103.226 58.751 100.352C65.903 94.6149 73.7225 85.3492 80.4249 73.8904C87.1273 62.4317 91.3471 51.1145 92.8051 42.1322C93.5353 37.6333 93.5537 33.8347 92.9264 30.9397ZM97.041 42.8021C95.4811 52.4127 91.0354 64.2192 84.1401 76.0077C77.2448 87.7962 69.1089 97.4997 61.4568 103.638C57.6368 106.703 53.8462 108.953 50.3121 110.081C46.7783 111.21 43.2636 111.281 40.3067 109.596C37.3498 107.911 35.6554 104.871 34.8786 101.286C34.1016 97.7007 34.1803 93.3355 34.959 88.5379C36.5189 78.9273 40.9646 67.1208 47.8599 55.3323C54.7552 43.5438 62.8911 33.8403 70.5433 27.7015C74.3633 24.637 78.1539 22.3872 81.6879 21.2587C85.2217 20.1303 88.7365 20.0585 91.6934 21.7435C94.6503 23.4286 96.3446 26.469 97.1215 30.054C97.8984 33.6393 97.8198 38.0045 97.041 42.8021Z" fill="#61DAFB" style="fill:#61DAFB;fill:color(display-p3 0.3804 0.8549 0.9843);fill-opacity:1;"/>
</g>
</g>
<defs>
<clipPath id="clip0_95_70">
<rect width="132" height="132" fill="white" style="fill:white;fill-opacity:1;"/>
</clipPath>
<clipPath id="clip1_95_70">
<rect width="102.96" height="90.42" fill="white" style="fill:white;fill-opacity:1;" transform="translate(14.52 20.46)"/>
</clipPath>
</defs>
</svg>
